Plot

Terror lurks in the old orphanage, beneath a disused London
hospital - a Seventeeth Century malevolence, the Plague Doctor, has
returned to complete his evil masterpiece...


Cast

Gina Philips ... Anna
Alex Hassell ... Nick
Kellie Shirley ... Joolz
Andrew Knott ... Steve
Jack Bailey ... Clive
John Lebar ... Plague Doctor
Romla Walker ... Professor Joan Holland
Tom Wontner ... Frank
Gregg Harris ... Dave
Stuart Brennan ... Classroom Student
Finlay Carr ... Baby
Gillian MacGregor ... Jo
Sam Burke ... Ragged boy
Abe Buckoke ... Ragged boy
Alfie Owen ... Ragged boy


General Info
Encoded By .......: BigPerm1828
Runtime ..........: 1h 30mn
File Size ........: 892 MiB
Resolution .......: 704x396
IMDb URL .........: http://www.imdb.com/title/tt0451197/
Language .........: English
Overall bit rate..: 1 382 Kbps
Video
ID : 0
Format : MPEG-4 Visual
Format profile : Advanced Simple@L5
Format settings, BVOP : Yes
Format settings, QPel : No
Format settings, GMC : No warppoints
Format settings, Matrix : Default (H.263)
Codec ID : XVID
Codec ID/Hint : XviD
Duration : 1h 30mn
Bit rate : 928 Kbps
Width : 704 pixels
Height : 396 pixels
Display aspect ratio : 16:9
Frame rate : 29.970 fps
Color space : YUV
Chroma subsampling : 4:2:0
Bit depth : 8 bits
Scan type : Progressive
Compression mode : Lossy
Bits/(Pixel*Frame) : 0.111
Stream size : 598 MiB (67%)
Writing library : XviD 1.2.1 (UTC 2008-12-04)

Audio
ID : 1
Format : AC-3
Format/Info : Audio Coding 3
Mode extension : CM (complete main)
Codec ID : 2000
Duration : 1h 30mn
Bit rate mode : Constant
Bit rate : 448 Kbps
Channel(s) : 6 channels
Channel positions : Front: L C R, Side: L R, LFE
Sampling rate : 48.0 KHz
Bit depth : 16 bits
Compression mode : Lossy
Video delay : 33ms
Stream size : 289 MiB (32%)
Alignment : Split accross interleaves
Interleave, duration : 500 ms (14.98 video frames)
Interleave, preload duration : 500 ms
Language : English


Screens
 
http://leetleech.org/images/07781118228707908648.png 
http://leetleech.org/images/59293480209640956259.png 
http://leetleech.org/images/04304895916428524089.png 
http://leetleech.org/images/38625452169849337935.png

   http://www.imdb.com/title/tt0451197/ 
 
Thans to BigPerm